<mxfile host="www.draw.io" modified="2019-10-25T12:17:03.545Z" agent="Mozilla/5.0 (X11; Linux x86_64) AppleWebKit/537.36 (KHTML, like Gecko) snap Chromium/78.0.3904.70 Chrome/78.0.3904.70 Safari/537.36" etag="2ZwYHInebJXYlxQEb_6p" version="12.1.5" type="github" pages="1">
  <diagram id="Zc9yJ2nfPfxR-4zW1YLG" name="Page-1">
    <mxGraphModel dx="1338" dy="843" grid="1" gridSize="10" guides="1" tooltips="1" connect="1" arrows="1" fold="1" page="1" pageScale="1" pageWidth="850" pageHeight="1100" math="0" shadow="0">
      <root>
        <mxCell id="0"/>
        <mxCell id="1" parent="0"/>
        <mxCell id="tDePKV6R2ixYgKRACaby-2" value="" style="group" vertex="1" connectable="0" parent="1">
          <mxGeometry x="40" y="100" width="210" height="100" as="geometry"/>
        </mxCell>
        <mxCell id="N_97EMzxFW7_r6Rp866p-8" value="" style="rounded=0;whiteSpace=wrap;html=1;" parent="tDePKV6R2ixYgKRACaby-2" vertex="1">
          <mxGeometry y="20" width="210" height="80" as="geometry"/>
        </mxCell>
        <mxCell id="N_97EMzxFW7_r6Rp866p-3" value="VM" style="rounded=0;whiteSpace=wrap;html=1;fillColor=#60a917;strokeColor=none;fontColor=#ffffff;" parent="tDePKV6R2ixYgKRACaby-2" vertex="1">
          <mxGeometry x="10" y="30" width="40" height="40" as="geometry"/>
        </mxCell>
        <mxCell id="N_97EMzxFW7_r6Rp866p-4" value="VM" style="rounded=0;whiteSpace=wrap;html=1;fillColor=#6a00ff;strokeColor=none;fontColor=#ffffff;" parent="tDePKV6R2ixYgKRACaby-2" vertex="1">
          <mxGeometry x="70" y="30" width="40" height="40" as="geometry"/>
        </mxCell>
        <mxCell id="N_97EMzxFW7_r6Rp866p-6" value="VM" style="rounded=0;whiteSpace=wrap;html=1;fillColor=#0050ef;strokeColor=none;fontColor=#ffffff;" parent="tDePKV6R2ixYgKRACaby-2" vertex="1">
          <mxGeometry x="160" y="30" width="40" height="40" as="geometry"/>
        </mxCell>
        <mxCell id="N_97EMzxFW7_r6Rp866p-7" value="" style="endArrow=none;dashed=1;html=1;" parent="tDePKV6R2ixYgKRACaby-2" edge="1">
          <mxGeometry width="50" height="50" relative="1" as="geometry">
            <mxPoint x="120" y="49" as="sourcePoint"/>
            <mxPoint x="150" y="49" as="targetPoint"/>
          </mxGeometry>
        </mxCell>
        <mxCell id="tDePKV6R2ixYgKRACaby-1" value="Host" style="text;html=1;strokeColor=none;fillColor=none;align=center;verticalAlign=middle;whiteSpace=wrap;rounded=0;" vertex="1" parent="tDePKV6R2ixYgKRACaby-2">
          <mxGeometry width="40" height="20" as="geometry"/>
        </mxCell>
        <mxCell id="tDePKV6R2ixYgKRACaby-24" value="" style="group" vertex="1" connectable="0" parent="1">
          <mxGeometry x="40" y="240" width="210" height="100" as="geometry"/>
        </mxCell>
        <mxCell id="tDePKV6R2ixYgKRACaby-25" value="" style="rounded=0;whiteSpace=wrap;html=1;" vertex="1" parent="tDePKV6R2ixYgKRACaby-24">
          <mxGeometry y="20" width="210" height="80" as="geometry"/>
        </mxCell>
        <mxCell id="tDePKV6R2ixYgKRACaby-26" value="VM" style="rounded=0;whiteSpace=wrap;html=1;fillColor=#60a917;strokeColor=none;fontColor=#ffffff;" vertex="1" parent="tDePKV6R2ixYgKRACaby-24">
          <mxGeometry x="10" y="30" width="40" height="40" as="geometry"/>
        </mxCell>
        <mxCell id="tDePKV6R2ixYgKRACaby-27" value="VM" style="rounded=0;whiteSpace=wrap;html=1;fillColor=#d80073;strokeColor=none;fontColor=#ffffff;" vertex="1" parent="tDePKV6R2ixYgKRACaby-24">
          <mxGeometry x="70" y="30" width="40" height="40" as="geometry"/>
        </mxCell>
        <mxCell id="tDePKV6R2ixYgKRACaby-28" value="VM" style="rounded=0;whiteSpace=wrap;html=1;fillColor=#0050ef;strokeColor=none;fontColor=#ffffff;" vertex="1" parent="tDePKV6R2ixYgKRACaby-24">
          <mxGeometry x="160" y="30" width="40" height="40" as="geometry"/>
        </mxCell>
        <mxCell id="tDePKV6R2ixYgKRACaby-29" value="" style="endArrow=none;dashed=1;html=1;" edge="1" parent="tDePKV6R2ixYgKRACaby-24">
          <mxGeometry width="50" height="50" relative="1" as="geometry">
            <mxPoint x="120" y="49" as="sourcePoint"/>
            <mxPoint x="150" y="49" as="targetPoint"/>
          </mxGeometry>
        </mxCell>
        <mxCell id="tDePKV6R2ixYgKRACaby-30" value="Host" style="text;html=1;strokeColor=none;fillColor=none;align=center;verticalAlign=middle;whiteSpace=wrap;rounded=0;" vertex="1" parent="tDePKV6R2ixYgKRACaby-24">
          <mxGeometry width="40" height="20" as="geometry"/>
        </mxCell>
        <mxCell id="tDePKV6R2ixYgKRACaby-38" value="" style="group" vertex="1" connectable="0" parent="1">
          <mxGeometry x="40" y="370" width="210" height="100" as="geometry"/>
        </mxCell>
        <mxCell id="tDePKV6R2ixYgKRACaby-39" value="" style="rounded=0;whiteSpace=wrap;html=1;" vertex="1" parent="tDePKV6R2ixYgKRACaby-38">
          <mxGeometry y="20" width="210" height="80" as="geometry"/>
        </mxCell>
        <mxCell id="tDePKV6R2ixYgKRACaby-40" value="VM" style="rounded=0;whiteSpace=wrap;html=1;fillColor=#6a00ff;strokeColor=none;fontColor=#ffffff;" vertex="1" parent="tDePKV6R2ixYgKRACaby-38">
          <mxGeometry x="10" y="30" width="40" height="40" as="geometry"/>
        </mxCell>
        <mxCell id="tDePKV6R2ixYgKRACaby-41" value="VM" style="rounded=0;whiteSpace=wrap;html=1;fillColor=#0050ef;strokeColor=none;fontColor=#ffffff;" vertex="1" parent="tDePKV6R2ixYgKRACaby-38">
          <mxGeometry x="70" y="30" width="40" height="40" as="geometry"/>
        </mxCell>
        <mxCell id="tDePKV6R2ixYgKRACaby-42" value="VM" style="rounded=0;whiteSpace=wrap;html=1;fillColor=#d80073;strokeColor=#A50040;fontColor=#ffffff;" vertex="1" parent="tDePKV6R2ixYgKRACaby-38">
          <mxGeometry x="160" y="30" width="40" height="40" as="geometry"/>
        </mxCell>
        <mxCell id="tDePKV6R2ixYgKRACaby-43" value="" style="endArrow=none;dashed=1;html=1;" edge="1" parent="tDePKV6R2ixYgKRACaby-38">
          <mxGeometry width="50" height="50" relative="1" as="geometry">
            <mxPoint x="120" y="49" as="sourcePoint"/>
            <mxPoint x="150" y="49" as="targetPoint"/>
          </mxGeometry>
        </mxCell>
        <mxCell id="tDePKV6R2ixYgKRACaby-44" value="Host" style="text;html=1;strokeColor=none;fillColor=none;align=center;verticalAlign=middle;whiteSpace=wrap;rounded=0;" vertex="1" parent="tDePKV6R2ixYgKRACaby-38">
          <mxGeometry width="40" height="20" as="geometry"/>
        </mxCell>
        <mxCell id="tDePKV6R2ixYgKRACaby-45" value="" style="group" vertex="1" connectable="0" parent="1">
          <mxGeometry x="280" y="370" width="210" height="100" as="geometry"/>
        </mxCell>
        <mxCell id="tDePKV6R2ixYgKRACaby-46" value="" style="rounded=0;whiteSpace=wrap;html=1;" vertex="1" parent="tDePKV6R2ixYgKRACaby-45">
          <mxGeometry y="20" width="210" height="80" as="geometry"/>
        </mxCell>
        <mxCell id="tDePKV6R2ixYgKRACaby-47" value="VM" style="rounded=0;whiteSpace=wrap;html=1;fillColor=#60a917;strokeColor=none;fontColor=#ffffff;" vertex="1" parent="tDePKV6R2ixYgKRACaby-45">
          <mxGeometry x="10" y="30" width="40" height="40" as="geometry"/>
        </mxCell>
        <mxCell id="tDePKV6R2ixYgKRACaby-48" value="VM" style="rounded=0;whiteSpace=wrap;html=1;fillColor=#d80073;strokeColor=none;fontColor=#ffffff;" vertex="1" parent="tDePKV6R2ixYgKRACaby-45">
          <mxGeometry x="70" y="30" width="40" height="40" as="geometry"/>
        </mxCell>
        <mxCell id="tDePKV6R2ixYgKRACaby-49" value="VM" style="rounded=0;whiteSpace=wrap;html=1;fillColor=#6a00ff;strokeColor=none;fontColor=#ffffff;" vertex="1" parent="tDePKV6R2ixYgKRACaby-45">
          <mxGeometry x="160" y="30" width="40" height="40" as="geometry"/>
        </mxCell>
        <mxCell id="tDePKV6R2ixYgKRACaby-50" value="" style="endArrow=none;dashed=1;html=1;" edge="1" parent="tDePKV6R2ixYgKRACaby-45">
          <mxGeometry width="50" height="50" relative="1" as="geometry">
            <mxPoint x="120" y="49" as="sourcePoint"/>
            <mxPoint x="150" y="49" as="targetPoint"/>
          </mxGeometry>
        </mxCell>
        <mxCell id="tDePKV6R2ixYgKRACaby-51" value="Host" style="text;html=1;strokeColor=none;fillColor=none;align=center;verticalAlign=middle;whiteSpace=wrap;rounded=0;" vertex="1" parent="tDePKV6R2ixYgKRACaby-45">
          <mxGeometry width="40" height="20" as="geometry"/>
        </mxCell>
        <mxCell id="tDePKV6R2ixYgKRACaby-52" value="" style="group" vertex="1" connectable="0" parent="1">
          <mxGeometry x="40" y="530" width="210" height="100" as="geometry"/>
        </mxCell>
        <mxCell id="tDePKV6R2ixYgKRACaby-53" value="" style="rounded=0;whiteSpace=wrap;html=1;" vertex="1" parent="tDePKV6R2ixYgKRACaby-52">
          <mxGeometry y="20" width="210" height="80" as="geometry"/>
        </mxCell>
        <mxCell id="tDePKV6R2ixYgKRACaby-54" value="VM" style="rounded=0;whiteSpace=wrap;html=1;fillColor=#d80073;strokeColor=none;fontColor=#ffffff;" vertex="1" parent="tDePKV6R2ixYgKRACaby-52">
          <mxGeometry x="10" y="30" width="40" height="40" as="geometry"/>
        </mxCell>
        <mxCell id="tDePKV6R2ixYgKRACaby-55" value="VM" style="rounded=0;whiteSpace=wrap;html=1;fillColor=#0050ef;strokeColor=none;fontColor=#ffffff;" vertex="1" parent="tDePKV6R2ixYgKRACaby-52">
          <mxGeometry x="70" y="30" width="40" height="40" as="geometry"/>
        </mxCell>
        <mxCell id="tDePKV6R2ixYgKRACaby-56" value="VM" style="rounded=0;whiteSpace=wrap;html=1;fillColor=#60a917;strokeColor=none;fontColor=#ffffff;" vertex="1" parent="tDePKV6R2ixYgKRACaby-52">
          <mxGeometry x="160" y="30" width="40" height="40" as="geometry"/>
        </mxCell>
        <mxCell id="tDePKV6R2ixYgKRACaby-57" value="" style="endArrow=none;dashed=1;html=1;" edge="1" parent="tDePKV6R2ixYgKRACaby-52">
          <mxGeometry width="50" height="50" relative="1" as="geometry">
            <mxPoint x="120" y="49" as="sourcePoint"/>
            <mxPoint x="150" y="49" as="targetPoint"/>
          </mxGeometry>
        </mxCell>
        <mxCell id="tDePKV6R2ixYgKRACaby-58" value="Host" style="text;html=1;strokeColor=none;fillColor=none;align=center;verticalAlign=middle;whiteSpace=wrap;rounded=0;" vertex="1" parent="tDePKV6R2ixYgKRACaby-52">
          <mxGeometry width="40" height="20" as="geometry"/>
        </mxCell>
        <mxCell id="tDePKV6R2ixYgKRACaby-59" value="" style="group" vertex="1" connectable="0" parent="1">
          <mxGeometry x="280" y="530" width="210" height="100" as="geometry"/>
        </mxCell>
        <mxCell id="tDePKV6R2ixYgKRACaby-60" value="" style="rounded=0;whiteSpace=wrap;html=1;" vertex="1" parent="tDePKV6R2ixYgKRACaby-59">
          <mxGeometry y="20" width="210" height="80" as="geometry"/>
        </mxCell>
        <mxCell id="tDePKV6R2ixYgKRACaby-61" value="VM" style="rounded=0;whiteSpace=wrap;html=1;fillColor=#60a917;strokeColor=none;fontColor=#ffffff;" vertex="1" parent="tDePKV6R2ixYgKRACaby-59">
          <mxGeometry x="10" y="30" width="40" height="40" as="geometry"/>
        </mxCell>
        <mxCell id="tDePKV6R2ixYgKRACaby-62" value="VM" style="rounded=0;whiteSpace=wrap;html=1;fillColor=#0050ef;strokeColor=none;fontColor=#ffffff;" vertex="1" parent="tDePKV6R2ixYgKRACaby-59">
          <mxGeometry x="70" y="30" width="40" height="40" as="geometry"/>
        </mxCell>
        <mxCell id="tDePKV6R2ixYgKRACaby-63" value="VM" style="rounded=0;whiteSpace=wrap;html=1;fillColor=#6a00ff;strokeColor=none;fontColor=#ffffff;" vertex="1" parent="tDePKV6R2ixYgKRACaby-59">
          <mxGeometry x="160" y="30" width="40" height="40" as="geometry"/>
        </mxCell>
        <mxCell id="tDePKV6R2ixYgKRACaby-64" value="" style="endArrow=none;dashed=1;html=1;" edge="1" parent="tDePKV6R2ixYgKRACaby-59">
          <mxGeometry width="50" height="50" relative="1" as="geometry">
            <mxPoint x="120" y="49" as="sourcePoint"/>
            <mxPoint x="150" y="49" as="targetPoint"/>
          </mxGeometry>
        </mxCell>
        <mxCell id="tDePKV6R2ixYgKRACaby-65" value="Host" style="text;html=1;strokeColor=none;fillColor=none;align=center;verticalAlign=middle;whiteSpace=wrap;rounded=0;" vertex="1" parent="tDePKV6R2ixYgKRACaby-59">
          <mxGeometry width="40" height="20" as="geometry"/>
        </mxCell>
        <mxCell id="tDePKV6R2ixYgKRACaby-66" value="" style="endArrow=none;dashed=1;html=1;strokeWidth=2;" edge="1" parent="1">
          <mxGeometry width="50" height="50" relative="1" as="geometry">
            <mxPoint x="144" y="535" as="sourcePoint"/>
            <mxPoint x="144" y="475" as="targetPoint"/>
          </mxGeometry>
        </mxCell>
        <mxCell id="tDePKV6R2ixYgKRACaby-67" value="" style="endArrow=none;dashed=1;html=1;strokeWidth=2;" edge="1" parent="1">
          <mxGeometry width="50" height="50" relative="1" as="geometry">
            <mxPoint x="385" y="535" as="sourcePoint"/>
            <mxPoint x="385" y="475" as="targetPoint"/>
          </mxGeometry>
        </mxCell>
        <mxCell id="tDePKV6R2ixYgKRACaby-73" value="" style="group" vertex="1" connectable="0" parent="1">
          <mxGeometry x="270" y="100" width="250" height="255" as="geometry"/>
        </mxCell>
        <mxCell id="tDePKV6R2ixYgKRACaby-72" value="" style="rounded=0;whiteSpace=wrap;html=1;dashed=1;strokeWidth=2;" vertex="1" parent="tDePKV6R2ixYgKRACaby-73">
          <mxGeometry width="230" height="255" as="geometry"/>
        </mxCell>
        <mxCell id="tDePKV6R2ixYgKRACaby-71" value="" style="group" vertex="1" connectable="0" parent="tDePKV6R2ixYgKRACaby-73">
          <mxGeometry x="10" y="5" width="240" height="250" as="geometry"/>
        </mxCell>
        <mxCell id="tDePKV6R2ixYgKRACaby-31" value="" style="group" vertex="1" connectable="0" parent="tDePKV6R2ixYgKRACaby-71">
          <mxGeometry y="140" width="210" height="100" as="geometry"/>
        </mxCell>
        <mxCell id="tDePKV6R2ixYgKRACaby-32" value="" style="rounded=0;whiteSpace=wrap;html=1;fillColor=#ffe6cc;strokeColor=none;" vertex="1" parent="tDePKV6R2ixYgKRACaby-31">
          <mxGeometry y="20" width="210" height="80" as="geometry"/>
        </mxCell>
        <mxCell id="tDePKV6R2ixYgKRACaby-33" value="VM" style="rounded=0;whiteSpace=wrap;html=1;fillColor=#d80073;strokeColor=none;fontColor=#ffffff;" vertex="1" parent="tDePKV6R2ixYgKRACaby-31">
          <mxGeometry x="10" y="30" width="40" height="40" as="geometry"/>
        </mxCell>
        <mxCell id="tDePKV6R2ixYgKRACaby-34" value="VM" style="rounded=0;whiteSpace=wrap;html=1;fillColor=#60a917;strokeColor=none;fontColor=#ffffff;" vertex="1" parent="tDePKV6R2ixYgKRACaby-31">
          <mxGeometry x="70" y="30" width="40" height="40" as="geometry"/>
        </mxCell>
        <mxCell id="tDePKV6R2ixYgKRACaby-35" value="VM" style="rounded=0;whiteSpace=wrap;html=1;fillColor=#0050ef;strokeColor=none;fontColor=#ffffff;" vertex="1" parent="tDePKV6R2ixYgKRACaby-31">
          <mxGeometry x="160" y="30" width="40" height="40" as="geometry"/>
        </mxCell>
        <mxCell id="tDePKV6R2ixYgKRACaby-36" value="" style="endArrow=none;dashed=1;html=1;" edge="1" parent="tDePKV6R2ixYgKRACaby-31">
          <mxGeometry width="50" height="50" relative="1" as="geometry">
            <mxPoint x="120" y="49" as="sourcePoint"/>
            <mxPoint x="150" y="49" as="targetPoint"/>
          </mxGeometry>
        </mxCell>
        <mxCell id="tDePKV6R2ixYgKRACaby-37" value="Host" style="text;html=1;strokeColor=none;fillColor=none;align=center;verticalAlign=middle;whiteSpace=wrap;rounded=0;" vertex="1" parent="tDePKV6R2ixYgKRACaby-31">
          <mxGeometry width="40" height="20" as="geometry"/>
        </mxCell>
        <mxCell id="tDePKV6R2ixYgKRACaby-68" value="" style="endArrow=none;dashed=1;html=1;strokeWidth=2;" edge="1" parent="tDePKV6R2ixYgKRACaby-71">
          <mxGeometry width="50" height="50" relative="1" as="geometry">
            <mxPoint x="90" y="140" as="sourcePoint"/>
            <mxPoint x="90" y="110" as="targetPoint"/>
          </mxGeometry>
        </mxCell>
        <mxCell id="tDePKV6R2ixYgKRACaby-70" value="" style="group" vertex="1" connectable="0" parent="tDePKV6R2ixYgKRACaby-71">
          <mxGeometry width="240" height="250" as="geometry"/>
        </mxCell>
        <mxCell id="tDePKV6R2ixYgKRACaby-4" value="" style="rounded=0;whiteSpace=wrap;html=1;fillColor=#ffe6cc;strokeColor=none;" vertex="1" parent="tDePKV6R2ixYgKRACaby-70">
          <mxGeometry y="20" width="210" height="80" as="geometry"/>
        </mxCell>
        <mxCell id="tDePKV6R2ixYgKRACaby-5" value="VM" style="rounded=0;whiteSpace=wrap;html=1;fillColor=#60a917;strokeColor=none;fontColor=#ffffff;" vertex="1" parent="tDePKV6R2ixYgKRACaby-70">
          <mxGeometry x="10" y="30" width="40" height="40" as="geometry"/>
        </mxCell>
        <mxCell id="tDePKV6R2ixYgKRACaby-6" value="VM" style="rounded=0;whiteSpace=wrap;html=1;fillColor=#0050ef;strokeColor=none;fontColor=#ffffff;" vertex="1" parent="tDePKV6R2ixYgKRACaby-70">
          <mxGeometry x="70" y="30" width="40" height="40" as="geometry"/>
        </mxCell>
        <mxCell id="tDePKV6R2ixYgKRACaby-7" value="VM" style="rounded=0;whiteSpace=wrap;html=1;fillColor=#6a00ff;strokeColor=none;fontColor=#ffffff;" vertex="1" parent="tDePKV6R2ixYgKRACaby-70">
          <mxGeometry x="160" y="30" width="40" height="40" as="geometry"/>
        </mxCell>
        <mxCell id="tDePKV6R2ixYgKRACaby-8" value="" style="endArrow=none;dashed=1;html=1;" edge="1" parent="tDePKV6R2ixYgKRACaby-70">
          <mxGeometry width="50" height="50" relative="1" as="geometry">
            <mxPoint x="120" y="49" as="sourcePoint"/>
            <mxPoint x="150" y="49" as="targetPoint"/>
          </mxGeometry>
        </mxCell>
        <mxCell id="tDePKV6R2ixYgKRACaby-9" value="Host" style="text;html=1;strokeColor=none;fillColor=none;align=center;verticalAlign=middle;whiteSpace=wrap;rounded=0;" vertex="1" parent="tDePKV6R2ixYgKRACaby-70">
          <mxGeometry width="40" height="20" as="geometry"/>
        </mxCell>
      </root>
    </mxGraphModel>
  </diagram>
</mxfile>
